<svg width="30" height="30" viewBox="0 0 30 30" fill="none" xmlns="http://www.w3.org/2000/svg">
<path d="M19.5737 18.7453C19.5737 21.5853 16.9138 21.5196 16.6326 21.5196H11.2158V16.0493H16.6326C19.4826 16.0493 19.5737 18.1855 19.5737 18.7453ZM16.2154 13.8482C16.2603 13.8482 18.7895 13.9152 18.7895 11.4167C18.7895 10.3775 18.5545 9.01473 16.2154 9.01473H11.2158V13.8482H16.2154V13.8482ZM30 5.00022V24.9998C29.9961 26.3247 29.4681 27.5943 28.5312 28.5312C27.5943 29.4681 26.3247 29.9961 24.9998 30H5.00022C3.67528 29.9961 2.40571 29.4681 1.46882 28.5312C0.531942 27.5943 0.00388653 26.3247 0 24.9998L0 5.00022C0.00388653 3.67528 0.531942 2.40571 1.46882 1.46882C2.40571 0.531942 3.67528 0.00388653 5.00022 0H24.9998C26.3247 0.00388653 27.5943 0.531942 28.5312 1.46882C29.4681 2.40571 29.9961 3.67528 30 5.00022V5.00022ZM22.6373 19.1424C22.6373 17.698 22.192 15.2391 19.3527 14.6324V14.5835C20.8868 13.9286 21.8531 12.6917 21.8531 10.8576C21.8531 10.3888 21.9871 6.51964 16.6567 6.51964H8.15223V24.0194C16.7391 24.0194 17.5185 24.1319 19.1076 23.6371C20.0592 23.3411 22.6373 22.433 22.6373 19.1424V19.1424Z" fill="#101D2C"/>
</svg>
