<svg width="22" height="30" viewBox="0 0 22 30" fill="none" xmlns="http://www.w3.org/2000/svg">
<path d="M0.862427 19.5913L3.81868 0.576296C3.84008 0.435343 3.9054 0.304734 4.00534 0.20306C4.10528 0.101387 4.23474 0.0338316 4.37531 0.0100119C4.51587 -0.0138078 4.66037 0.00732206 4.78822 0.0703934C4.91608 0.133465 5.02078 0.235263 5.08743 0.361296L8.26618 6.32505L0.862427 19.5913ZM21.8562 24.205L19.0412 6.7063C19.0205 6.58364 18.9665 6.46903 18.8851 6.37499C18.8037 6.28094 18.698 6.21108 18.5795 6.17302C18.4611 6.13497 18.3345 6.13019 18.2136 6.1592C18.0926 6.18821 17.9819 6.24991 17.8937 6.33755L0.143677 24.205L9.96493 29.74C10.2678 29.9102 10.6094 29.9996 10.9568 29.9996C11.3042 29.9996 11.6458 29.9102 11.9487 29.74L21.8562 24.205ZM13.8749 8.93505L11.5999 4.58255C11.5425 4.47309 11.4563 4.38142 11.3505 4.31746C11.2448 4.25351 11.1235 4.2197 10.9999 4.2197C10.8763 4.2197 10.7551 4.25351 10.6493 4.31746C10.5436 4.38142 10.4573 4.47309 10.3999 4.58255L0.412427 22.48L13.8749 8.93505Z" fill="black"/>
</svg>
