<svg width="30" height="31" viewBox="0 0 30 31" fill="none" xmlns="http://www.w3.org/2000/svg">
<path d="M15.0006 0C6.65235 0 0 6.65235 0 14.9994C0 23.3464 6.65235 30.0013 14.9994 30.0013C23.3464 30.0013 30 23.3489 30 15.0006C30 6.65235 23.3489 0 15.0006 0ZM3.26052 15.1307L14.8706 26.7407C8.47834 26.7407 3.26052 21.5229 3.26052 15.1307V15.1307ZM17.6095 26.4793L3.52191 12.3917C4.69379 7.17389 9.39134 3.26052 14.9994 3.26052C16.8537 3.26414 18.6812 3.70282 20.3351 4.54128C21.989 5.37974 23.4231 6.59458 24.522 8.08813L22.8274 9.52141C21.9436 8.22803 20.756 7.17121 19.3688 6.44357C17.9816 5.71594 16.437 5.33972 14.8706 5.3479C12.8896 5.33517 10.9548 5.94536 9.33962 7.09219C7.7244 8.23902 6.51048 9.8645 5.86943 11.7389L18.1311 24.0018C21.1327 22.9574 23.479 20.3498 24.1318 17.2181H19.0441V15.0006H26.7407C26.7407 20.6099 22.8274 25.3062 17.6095 26.4793V26.4793Z" fill="black"/>
</svg>
