<svg width="30" height="30" viewBox="0 0 30 30" fill="none" xmlns="http://www.w3.org/2000/svg">
<path d="M29.4325 13.6628L16.3338 0.565313C15.5788 -0.188437 14.3562 -0.188437 13.5987 0.565313L10.885 3.28406L14.335 6.73406C15.1413 6.46531 16.0588 6.64656 16.6963 7.28531C17.3413 7.92906 17.5188 8.85781 17.2438 9.66031L20.5662 12.9853C21.3725 12.7066 22.3 12.8878 22.9413 13.5291C23.8425 14.4291 23.8425 15.8841 22.9413 16.7841C22.0425 17.6828 20.59 17.6828 19.6913 16.7841C19.0175 16.1078 18.8487 15.1128 19.1862 14.2891L16.075 11.1941V19.3503C16.295 19.4578 16.5025 19.6041 16.685 19.7853C17.5762 20.6866 17.5762 22.1391 16.685 23.0353C15.7862 23.9366 14.3238 23.9366 13.4238 23.0353C12.525 22.1366 12.525 20.6866 13.4238 19.7878C13.6513 19.5628 13.9075 19.3928 14.18 19.2803V11.0441C13.9087 10.9303 13.65 10.7666 13.43 10.5428C12.7488 9.86156 12.585 8.86531 12.935 8.03156L9.545 4.62531L0.5625 13.6016C-0.1875 14.3578 -0.1875 15.5816 0.5625 16.3378L13.6625 29.4341C14.4175 30.1891 15.64 30.1891 16.395 29.4341L29.4325 16.3966C30.1887 15.6428 30.1887 14.4191 29.4325 13.6628" fill="black"/>
</svg>
