<svg width="30" height="32" viewBox="0 0 30 32" fill="none" xmlns="http://www.w3.org/2000/svg">
<path d="M20.9745 31V25.4785C21.028 24.7981 20.9361 24.1142 20.7049 23.4722C20.4736 22.8301 20.1084 22.2446 19.6334 21.7547C24.1134 21.2553 28.8216 19.5575 28.8216 11.7674C28.8213 9.7754 28.055 7.85981 26.6815 6.41708C27.3319 4.67431 27.2859 2.74797 26.5531 1.03823C26.5531 1.03823 24.8695 0.538864 20.9745 3.14982C17.7044 2.26355 14.2574 2.26355 10.9873 3.14982C7.09223 0.538864 5.40866 1.03823 5.40866 1.03823C4.67585 2.74797 4.62986 4.67431 5.28025 6.41708C3.89649 7.87051 3.12946 9.80342 3.14013 11.8102C3.14013 19.5432 7.8484 21.241 12.3284 21.7975C11.859 22.2825 11.497 22.861 11.2659 23.4952C11.0348 24.1294 10.9399 24.8051 10.9873 25.4785V31M10.9873 26.7197C3.8535 28.8599 3.8535 23.1529 1 22.4395L10.9873 26.7197Z" stroke="#101D2C" stroke-width="2" stroke-linecap="round" stroke-linejoin="round"/>
</svg>
