<svg width="30" height="29" viewBox="0 0 30 29" fill="none" xmlns="http://www.w3.org/2000/svg">
<path d="M1.90408 6.77625C-0.749666 10.5887 -0.420916 15.5475 1.60783 19.5962C1.65408 19.695 1.70533 19.7887 1.75533 19.8825C1.78408 19.9475 1.81658 20.0075 1.85158 20.0688C1.86783 20.1038 1.89033 20.14 1.91033 20.1725C1.94283 20.2375 1.97783 20.3 2.01158 20.3625L2.20783 20.6938C2.24408 20.755 2.27908 20.815 2.32033 20.8763C2.38908 20.9938 2.47033 21.11 2.54158 21.2275C2.57408 21.2763 2.60408 21.325 2.64033 21.3738C2.76156 21.5642 2.89085 21.7493 3.02783 21.9288C3.12533 22.0625 3.22283 22.1925 3.32783 22.3225C3.36158 22.37 3.39908 22.4175 3.43408 22.465L3.71033 22.8013C3.74408 22.84 3.77783 22.885 3.81408 22.925C3.93658 23.0725 4.06658 23.2163 4.19658 23.3613C4.19658 23.3638 4.20033 23.3663 4.20283 23.37C4.36114 23.5702 4.53865 23.7544 4.73283 23.92C4.83283 24.0225 4.93283 24.125 5.03908 24.225L5.16533 24.3463C5.30408 24.4763 5.44283 24.6063 5.58908 24.7313C5.59158 24.7313 5.59283 24.7338 5.59533 24.735L5.66658 24.7975C5.79408 24.9088 5.92283 25.02 6.05408 25.1225L6.21033 25.2538C6.31658 25.3388 6.42658 25.42 6.53533 25.5038L6.70533 25.6337C6.82158 25.7212 6.94533 25.8075 7.06408 25.8925C7.10783 25.9238 7.15158 25.955 7.19658 25.9838L7.23283 26.0125L7.58408 26.2438L7.73408 26.3438C7.91783 26.4613 8.10033 26.5725 8.28158 26.6825C8.33408 26.7088 8.38658 26.7375 8.43533 26.7675C8.57033 26.845 8.71033 26.9238 8.84658 26.9963C8.92158 27.0388 8.99908 27.075 9.07658 27.1137C9.17033 27.1662 9.26783 27.2175 9.36783 27.27C9.39201 27.2774 9.41545 27.287 9.43783 27.2988C9.47908 27.3175 9.51783 27.3375 9.55783 27.3575C9.70783 27.4325 9.86408 27.5038 10.0266 27.575C10.0566 27.5875 10.0891 27.6 10.1216 27.6175C10.3016 27.6963 10.4816 27.7713 10.6678 27.845C10.7103 27.8575 10.7553 27.8787 10.7991 27.895C10.9678 27.9587 11.1416 28.0238 11.3128 28.085L11.3753 28.1075C11.5666 28.1725 11.7553 28.235 11.9491 28.295C11.9941 28.3075 12.0403 28.3238 12.0878 28.3363C12.2866 28.3963 12.4791 28.4675 12.6791 28.5063C25.5041 30.8438 29.2316 20.795 29.2316 20.795C26.1003 24.8725 20.5441 25.9475 15.2816 24.7513C15.0866 24.7063 14.8916 24.6438 14.6953 24.5863C14.4575 24.516 14.2211 24.4406 13.9866 24.36L13.9091 24.33C13.7391 24.2725 13.5753 24.2087 13.4091 24.145C13.3639 24.1263 13.318 24.1092 13.2716 24.0938C13.0878 24.02 12.9091 23.9438 12.7316 23.865C12.6928 23.8525 12.6603 23.835 12.6216 23.82C12.4706 23.7505 12.3201 23.6796 12.1703 23.6075C12.1241 23.5875 12.0828 23.5663 12.0378 23.5425C11.9203 23.4875 11.8028 23.425 11.6878 23.365C11.6089 23.3271 11.5309 23.2871 11.4541 23.245C11.3128 23.17 11.1716 23.0888 11.0303 23.0113C10.9878 22.9813 10.9391 22.9563 10.8903 22.9288C10.706 22.8196 10.5235 22.7075 10.3428 22.5925C10.2926 22.5613 10.2434 22.5283 10.1953 22.4938C10.0627 22.412 9.93263 22.3261 9.80533 22.2363C9.76158 22.2075 9.72158 22.1763 9.67658 22.145C9.55242 22.059 9.42989 21.9707 9.30908 21.88C9.25658 21.8375 9.20033 21.7975 9.14408 21.755C9.03408 21.6688 8.92283 21.5863 8.81283 21.495L8.66533 21.3775C8.52377 21.2633 8.38457 21.1462 8.24783 21.0263C8.23361 21.0124 8.21812 20.9998 8.20158 20.9888L7.76783 20.5938L7.64283 20.4763C7.54033 20.3725 7.43533 20.2725 7.33033 20.17L7.20908 20.045C7.07704 19.9136 6.94825 19.779 6.82283 19.6413L6.80408 19.6212C6.67158 19.4762 6.54283 19.3287 6.41283 19.1787C6.37908 19.14 6.34783 19.0988 6.31283 19.0575L6.03033 18.7112C5.8862 18.5265 5.74452 18.3398 5.60533 18.1512C2.68658 14.1662 1.63033 8.66625 3.96658 4.155L1.90408 6.77625ZM10.1378 3.565C8.21408 6.32625 8.32283 10.0187 9.82033 12.9387C10.0678 13.4303 10.3506 13.9032 10.6666 14.3537C10.9541 14.7662 11.2716 15.2537 11.6566 15.5862C11.7903 15.7387 11.9353 15.8863 12.0866 16.035L12.1991 16.1475C12.3416 16.285 12.4878 16.42 12.6366 16.5538L12.6553 16.57C12.8239 16.7172 12.9965 16.8597 13.1728 16.9975C13.2153 17.0262 13.2516 17.06 13.2928 17.0887C13.4678 17.2237 13.6441 17.3538 13.8266 17.4825L13.8453 17.4937C13.9228 17.55 14.0053 17.6013 14.0928 17.6562C14.1278 17.6787 14.1678 17.7087 14.2053 17.7312C14.3378 17.8162 14.4678 17.8962 14.6016 17.9775C14.6228 17.9862 14.6416 17.9975 14.6616 18.0062C14.7741 18.075 14.8966 18.1413 15.0141 18.2025C15.0553 18.2275 15.0953 18.2463 15.1378 18.27C15.2216 18.3113 15.3041 18.355 15.3841 18.3975L15.4241 18.415C15.5928 18.4975 15.7653 18.575 15.9341 18.6525C15.9766 18.6687 16.0128 18.6825 16.0491 18.7C16.1878 18.76 16.3291 18.8175 16.4678 18.8713C16.5303 18.8925 16.5891 18.9175 16.6478 18.9363C16.7753 18.9838 16.9091 19.0275 17.0353 19.0712L17.2103 19.1275C17.3928 19.1838 17.5778 19.2575 17.7703 19.2887C27.6703 20.93 29.9628 13.305 29.9628 13.305C27.8991 16.275 23.9053 17.69 19.6491 16.585C19.4609 16.5363 19.2741 16.4821 19.0891 16.4225C19.0291 16.4062 18.9766 16.3875 18.9191 16.37C18.7891 16.325 18.6553 16.2812 18.5291 16.2337L18.3491 16.1662C18.2091 16.11 18.0666 16.0575 17.9303 15.9975C17.8878 15.9788 17.8491 15.9663 17.8166 15.9475C17.6416 15.8688 17.4653 15.7912 17.2953 15.7075L17.0378 15.5737L16.8891 15.4988C16.7741 15.4388 16.6678 15.3762 16.5578 15.3112C16.5312 15.2986 16.5053 15.2844 16.4803 15.2688C16.3478 15.1863 16.2103 15.1063 16.0841 15.0213C16.0416 14.9975 16.0028 14.9687 15.9628 14.9437L15.7028 14.7738C15.5228 14.6488 15.3466 14.5137 15.1691 14.3837C15.1291 14.3475 15.0903 14.3175 15.0516 14.285C13.1803 12.8137 11.7041 10.8025 11.0041 8.525C10.2666 6.1575 10.4291 3.5025 11.7028 1.3475L10.1378 3.565ZM17.0616 1.16375C15.9266 2.82875 15.8178 4.89625 16.5991 6.7325C17.4291 8.6825 19.1266 10.2138 21.1041 10.9388C21.1853 10.97 21.2641 10.9963 21.3478 11.0263L21.4578 11.06C21.5728 11.0962 21.6891 11.1388 21.8078 11.165C27.2778 12.22 28.7578 8.35625 29.1566 7.78875C27.8541 9.65875 25.6703 10.1075 22.9916 9.45625C22.773 9.40163 22.5577 9.33486 22.3466 9.25625C22.0841 9.16402 21.8267 9.05804 21.5753 8.93875C21.0996 8.70818 20.6475 8.43187 20.2253 8.11375C17.8253 6.29625 16.3391 2.82625 17.9041 0" fill="black"/>
</svg>
