<svg width="30" height="30" viewBox="0 0 30 30" fill="none" xmlns="http://www.w3.org/2000/svg">
<path d="M12.72 0V8.07L14.97 11.16L17.22 8.07V0H12.72ZM17.22 8.07V11.91L20.85 10.71L25.62 4.2L21.96 1.53L17.22 8.07ZM20.85 10.71L18.6 13.83L22.26 15L29.94 12.51L28.53 8.22L20.85 10.71ZM22.26 15L18.6 16.17L20.85 19.29L28.53 21.78L29.94 17.49L22.26 15ZM20.85 19.29L17.22 18.09V21.93L21.96 28.47L25.62 25.8L20.85 19.29ZM17.22 21.93L14.97 18.84L12.72 21.93V30H17.22V21.93ZM12.72 21.93V18.09L9.09 19.29L4.32 25.8L7.98 28.47L12.72 21.93ZM9.09 19.29L11.34 16.17L7.68 15L0 17.49L1.41 21.78L9.09 19.29ZM7.68 15L11.34 13.83L9.09 10.71L1.41 8.22L0 12.51L7.68 15ZM9.09 10.71L12.72 11.91V8.07L7.98 1.53L4.32 4.2L9.09 10.71Z" fill="black"/>
</svg>
