<svg width="14" height="24" viewBox="0 0 14 24" fill="none" xmlns="http://www.w3.org/2000/svg">
<path d="M13.2025 9.518C11.6237 3.958 7.89996 2.131 7.49996 1.432C7.05996 0.939 6.58371 0 6.58371 0C6.58121 0.019 6.57871 0.031 6.57746 0.049V0.062H6.57621C6.57371 0.077 6.57246 0.087 6.57121 0.101V0.116H6.56871C6.56871 0.126 6.56621 0.134 6.56621 0.142V0.168H6.56246C6.56121 0.176 6.56121 0.186 6.55871 0.193V0.214H6.55621C6.55621 0.221 6.55621 0.229 6.55371 0.235V0.255H6.55121C6.55121 0.265 6.54996 0.277 6.54871 0.287V0.289C6.54496 0.306 6.54121 0.323 6.53746 0.339V0.347H6.53496C6.53371 0.351 6.53121 0.355 6.53121 0.359V0.376H6.52746V0.398H6.52121V0.416H6.51496V0.437H6.50996V0.456H6.50496V0.473H6.49746V0.487H6.49246V0.505H6.48746V0.519H6.48121V0.532H6.47746V0.547H6.47246C6.47121 0.548 6.47121 0.55 6.47121 0.551V0.561H6.46746C6.46621 0.563 6.46621 0.565 6.46621 0.567V0.573H6.46371C6.46246 0.576 6.46121 0.581 6.46121 0.583C6.45746 0.59 6.45246 0.597 6.44871 0.604V0.606C6.44621 0.608 6.44371 0.611 6.44246 0.613V0.621H6.43746V0.629H6.43121V0.637H6.42746V0.647H6.41996V0.661H6.41496V0.665H6.40996V0.673H6.40496V0.684H6.39996V0.692H6.39246V0.703H6.38746V0.711H6.38121V0.719H6.37746V0.729H6.37121V0.737H6.36621V0.743H6.36121V0.751H6.35371V0.76H6.34871V0.766H6.34246V0.774H6.33746V0.785H6.33121V0.789H6.32746V0.797H6.31996V0.801H6.31496V0.811H6.30996V0.815H6.30496V0.823H6.29871V0.829H6.29496L6.29246 0.833V0.837H6.28996C6.28871 0.839 6.28746 0.839 6.28746 0.841V0.842H6.28621C6.28496 0.845 6.28371 0.847 6.28121 0.849V0.852H6.27996C6.27371 0.858 6.26996 0.864 6.26496 0.87V0.871C6.26246 0.873 6.25621 0.877 6.25371 0.881V0.883H6.25246C6.25121 0.884 6.24871 0.885 6.24871 0.886V0.889H6.24621L6.24246 0.892V0.893H6.24121C6.24121 0.894 6.23871 0.895 6.23746 0.897V0.901H6.23371L6.23121 0.903V0.905H6.22871C6.22871 0.907 6.22621 0.907 6.22621 0.908V0.911H6.22121C6.22121 0.912 6.21996 0.913 6.21871 0.914V0.92H6.21496V0.924H6.20996V0.93H6.20496V0.938H6.19871V0.93H6.19246V0.934H6.18746V0.94H6.18121V0.948H6.17496V0.952H6.16996V0.958H6.16496V0.962H6.15996V0.97H6.15246V0.974H6.14746V0.98H6.14121V0.984H6.13621V0.989H6.12996V0.999H6.12746V1.003H6.11996V1.008H6.11496V1.01H6.10996V1.014H6.10371V1.024H6.09871V1.028H6.09246V1.032H6.08746V1.038H6.08121V1.042H6.07496V1.046H6.06996V1.05H6.06496V1.06H6.05996V1.065H6.05246V1.069H6.04746V1.073H6.04121V1.079H6.03621V1.083H6.02996V1.09H6.02496V1.094H6.01746V1.1H6.01496V1.104H6.00996V1.108H6.00371V1.112H5.99871V1.118H5.99246V1.122H5.98871C5.98746 1.123 5.98746 1.124 5.98746 1.124V1.126H5.98496L5.97996 1.13C5.97996 1.13 5.97746 1.132 5.97496 1.133V1.139H5.96996V1.144H5.96496V1.148H5.95996V1.152H5.95621L5.95246 1.155V1.158H5.94996L5.94746 1.16V1.163H5.94496C5.93871 1.169 5.93621 1.173 5.92746 1.179C5.92496 1.181 5.91746 1.186 5.91246 1.189C5.89746 1.197 5.87871 1.21 5.86371 1.221C5.85371 1.226 5.84371 1.233 5.83621 1.238V1.239H5.83496C5.81496 1.252 5.79621 1.264 5.77371 1.278V1.279C5.74371 1.299 5.71496 1.318 5.68121 1.341V1.34H5.67871C5.60746 1.387 5.53246 1.44 5.44621 1.499V1.5H5.44496C5.23371 1.648 4.98246 1.838 4.70121 2.068L4.68246 2.083L4.67746 2.087C2.97746 3.494 0.298715 6.426 0.0162149 11.164C-0.00878506 11.556 -0.00378501 11.937 0.023715 12.308V12.317C0.159965 14.184 0.892464 15.778 1.80871 17.073V17.074C2.17371 17.59 2.56746 18.059 2.96621 18.479V18.48C4.34371 19.935 5.74996 20.797 6.10871 21.006C6.65996 22.029 6.60871 23.785 6.60871 23.785L7.41371 24C7.41371 24 7.24996 22.299 7.47996 21.478C7.55121 21.221 7.71996 21.002 7.91621 20.816C8.04871 20.741 8.44121 20.515 8.91246 20.171C8.93496 20.152 8.94746 20.135 8.96746 20.117C10.8687 18.699 14.42 15.207 13.2025 9.518V9.518Z" fill="black"/>
</svg>
