<svg width="30" height="21" viewBox="0 0 30 21" fill="none" xmlns="http://www.w3.org/2000/svg">
<path d="M20.5063 2.06241C20.3625 2.06241 20.265 2.07991 20.1638 2.10366V2.11991H20.1813C20.2488 2.24991 20.3637 2.34491 20.4487 2.46116C20.5162 2.59491 20.5738 2.72866 20.6413 2.86116L20.6588 2.84241C20.7763 2.75991 20.8337 2.62741 20.8337 2.42616C20.7837 2.36741 20.7762 2.30866 20.7337 2.25116C20.6837 2.16741 20.5762 2.12616 20.5087 2.05991L20.5063 2.06241ZM7.2125 18.5549H6.05375C6.01625 16.6024 5.9 14.7674 5.71625 13.0424H5.70625L3.94375 18.5549H3.0625L1.3125 13.0424H1.3C1.17125 14.6962 1.09 16.5337 1.05625 18.5549H0C0.06875 16.0974 0.24 13.7924 0.5125 11.6424H1.95L3.61875 16.7224H3.62875L5.3125 11.6424H6.68125C6.98375 14.1612 7.16125 16.4674 7.21625 18.5549H7.2125ZM12.2337 13.4549C11.7612 16.0112 11.1388 17.8712 10.3688 19.0299C9.76625 19.9249 9.10625 20.3712 8.39 20.3712C8.19875 20.3712 7.965 20.3137 7.6825 20.1987V19.5812C7.82 19.6024 7.9825 19.6137 8.165 19.6137C8.5 19.6137 8.76875 19.5199 8.97375 19.3362C9.22 19.1112 9.3425 18.8587 9.3425 18.5799C9.3425 18.3862 9.24625 17.9924 9.055 17.3999L7.7875 13.4549H8.925L9.83375 16.4049C10.0388 17.0749 10.125 17.5424 10.09 17.8087C10.59 16.4787 10.9375 15.0249 11.1337 13.4549H12.2337V13.4549ZM27.64 18.5549H24.3525V11.6424H25.4588V17.7049H27.64V18.5549ZM23.49 18.7237L22.22 18.0987C22.3325 18.0037 22.4413 17.9012 22.5388 17.7862C23.08 17.1537 23.3488 16.2137 23.3488 14.9699C23.3488 12.6824 22.4513 11.5374 20.655 11.5374C19.775 11.5374 19.0875 11.8274 18.5925 12.4087C18.055 13.0437 17.785 13.9787 17.785 15.2149C17.785 16.4299 18.0225 17.3224 18.5025 17.8899C18.94 18.4024 19.5988 18.6587 20.4813 18.6587C20.8113 18.6587 21.1138 18.6174 21.3875 18.5362L23.0437 19.5012L23.4938 18.7237H23.49ZM19.375 17.1712C19.0938 16.7212 18.9538 15.9962 18.9538 15.0012C18.9538 13.2599 19.4838 12.3887 20.5413 12.3887C21.095 12.3887 21.5037 12.5974 21.7625 13.0137C22.0425 13.4662 22.1825 14.1837 22.1825 15.1674C22.1825 16.9224 21.6525 17.8024 20.595 17.8024C20.0387 17.8024 19.6325 17.5937 19.3725 17.1774L19.375 17.1712ZM17.3025 16.6399C17.3025 17.2274 17.0875 17.7099 16.6575 18.0849C16.2275 18.4599 15.6538 18.6474 14.9275 18.6474C14.2488 18.6474 13.5975 18.4324 12.9613 18.0037L13.2575 17.4087C13.805 17.6837 14.2987 17.8187 14.745 17.8187C15.16 17.8187 15.4863 17.7274 15.7238 17.5437C15.9588 17.3599 16.0987 17.1012 16.0987 16.7749C16.0987 16.3624 15.8112 16.0124 15.2887 15.7187C14.8037 15.4524 13.835 14.8974 13.835 14.8974C13.3075 14.5137 13.045 14.1024 13.045 13.4262C13.045 12.8637 13.2413 12.4137 13.6325 12.0699C14.0263 11.7224 14.5325 11.5512 15.1575 11.5512C15.7975 11.5512 16.3825 11.7212 16.9075 12.0637L16.6412 12.6587C16.1912 12.4687 15.7475 12.3712 15.3112 12.3712C14.9575 12.3712 14.6838 12.4562 14.4938 12.6287C14.3025 12.7987 14.1838 13.0162 14.1838 13.2837C14.1838 13.6937 14.4762 14.0462 15.0162 14.3462C15.5075 14.6149 16.5 15.1837 16.5 15.1837C17.0412 15.5649 17.31 15.9712 17.31 16.6437L17.3025 16.6399ZM29.03 9.32491C28.3613 9.30741 27.8425 9.37491 27.4088 9.55991C27.2838 9.60991 27.0837 9.60991 27.0662 9.76866C27.135 9.83491 27.145 9.94366 27.2038 10.0362C27.3038 10.2037 27.4762 10.4274 27.6362 10.5449C27.8112 10.6824 27.9862 10.8149 28.17 10.9324C28.495 11.1324 28.8638 11.2512 29.1825 11.4524C29.3638 11.5699 29.5487 11.7187 29.7325 11.8437C29.8237 11.9062 29.8825 12.0187 30 12.0587V12.0337C29.9425 11.9587 29.925 11.8499 29.8688 11.7662C29.785 11.6824 29.7012 11.6074 29.6187 11.5249C29.3762 11.1999 29.075 10.9162 28.75 10.6812C28.4825 10.4987 27.8975 10.2437 27.7875 9.93741L27.7712 9.91991C27.9537 9.90366 28.1713 9.83741 28.3463 9.78741C28.63 9.71241 28.89 9.72866 29.1838 9.65491C29.3163 9.62116 29.45 9.57991 29.5837 9.53741V9.46241C29.4337 9.31241 29.3213 9.10867 29.1663 8.96867C28.7413 8.59992 28.27 8.24117 27.7863 7.93992C27.5238 7.77242 27.1912 7.66491 26.915 7.52241C26.815 7.47241 26.6475 7.44741 26.59 7.36366C26.44 7.18116 26.3525 6.93866 26.2462 6.72116C26.0062 6.26116 25.7713 5.75241 25.5625 5.26741C25.4125 4.93991 25.3213 4.61367 25.1375 4.31367C24.275 2.89242 23.3413 2.03116 21.905 1.18866C21.5963 1.01366 21.2262 0.938665 20.835 0.846165C20.6262 0.836165 20.4175 0.821165 20.21 0.812415C20.0725 0.753665 19.94 0.594915 19.8225 0.518665C19.3475 0.218665 18.1175 -0.431335 17.7675 0.428665C17.5425 0.971165 18.1012 1.50616 18.295 1.78116C18.4387 1.97241 18.62 2.19116 18.72 2.40616C18.7787 2.55116 18.795 2.69991 18.8538 2.85116C18.9863 3.21866 19.1125 3.62866 19.2875 3.97241C19.3788 4.14741 19.4788 4.33116 19.5963 4.48866C19.6638 4.57991 19.7787 4.62241 19.805 4.77241C19.6875 4.94241 19.68 5.18991 19.6125 5.39741C19.3125 6.34366 19.43 7.51366 19.855 8.20991C19.9887 8.41741 20.3075 8.87742 20.7337 8.70117C21.1087 8.55117 21.0262 8.07617 21.1337 7.65742C21.1587 7.55742 21.1425 7.49116 21.1937 7.42366V7.44241C21.3112 7.67741 21.4288 7.90116 21.5363 8.13616C21.7938 8.54616 22.2438 8.97117 22.62 9.25492C22.82 9.40492 22.9788 9.66491 23.2288 9.75741V9.73242H23.21C23.1563 9.65992 23.085 9.62491 23.0175 9.56616C22.8675 9.41616 22.6987 9.23242 22.58 9.06617C22.23 8.59492 21.9212 8.07866 21.6462 7.54366C21.5087 7.28116 21.3938 6.99867 21.2838 6.73992C21.2338 6.63992 21.2338 6.48992 21.15 6.43992C21.025 6.62242 20.8413 6.78116 20.75 7.00616C20.5913 7.36616 20.575 7.80866 20.515 8.26866C20.4813 8.27741 20.4975 8.26866 20.4813 8.28616C20.2138 8.22116 20.1225 7.94366 20.0225 7.71116C19.7725 7.11741 19.7313 6.16366 19.9475 5.47991C20.0063 5.30491 20.2562 4.75241 20.1562 4.58491C20.1038 4.42616 19.9388 4.33491 19.8475 4.20616C19.7388 4.05116 19.6225 3.84992 19.5475 3.67242C19.3475 3.20492 19.2475 2.68741 19.03 2.21991C18.93 2.00366 18.755 1.77741 18.6125 1.57866C18.4538 1.35366 18.2788 1.19491 18.1525 0.928665C18.1113 0.837415 18.0525 0.686164 18.1187 0.586164C18.1362 0.518664 18.1712 0.492415 18.2362 0.473665C18.3462 0.383665 18.655 0.501165 18.7637 0.551165C19.0725 0.676165 19.3325 0.793665 19.5913 0.968665C19.7088 1.05116 19.835 1.20991 19.985 1.25116H20.16C20.4275 1.30991 20.7288 1.26866 20.9788 1.34241C21.4225 1.48491 21.8225 1.69241 22.1813 1.91741C23.2763 2.61241 24.1762 3.59866 24.7875 4.77491C24.8875 4.96741 24.9312 5.14366 25.0225 5.34366C25.1975 5.75616 25.4137 6.17241 25.5912 6.57116C25.7662 6.96491 25.935 7.36617 26.1862 7.69242C26.3112 7.86742 26.8138 7.95866 27.0388 8.04991C27.205 8.12491 27.4637 8.19367 27.6137 8.28492C27.9012 8.45992 28.1812 8.65991 28.4512 8.85241C28.5887 8.94741 29.005 9.15616 29.03 9.32491V9.32491Z" fill="black"/>
</svg>
