<svg width="50" height="30" viewBox="0 0 50 30" fill="none" xmlns="http://www.w3.org/2000/svg">
<path d="M11.7902 7.82442H21.2145V8.56988H12.6541V14.1804H20.704V14.9259H12.6541V21.0858H21.3127V21.8312H11.7902V7.82442ZM22.0588 7.82442H23.0601L27.4974 13.9843L32.0329 7.82442L38.2018 0L28.0668 14.6316L33.2894 21.8312H32.2488L27.4974 15.279L22.7263 21.8312H21.7054L26.9673 14.6316L22.0588 7.82442ZM33.6625 8.56988V7.82442H44.4023V8.56988H39.4545V21.8312H38.5906V8.56988H33.6625Z" fill="black"/>
<path d="M0 7.82443H1.07987L15.9706 30L9.817 21.8312L0.903164 8.88377L0.863896 21.8312H0V7.82443Z" fill="black"/>
<path d="M44.3152 20.8608C44.4938 20.8608 44.6241 20.7247 44.6241 20.5488C44.6241 20.3729 44.4938 20.2368 44.3152 20.2368C44.1387 20.2368 44.0064 20.3729 44.0064 20.5488C44.0064 20.7247 44.1387 20.8608 44.3152 20.8608ZM45.1641 20.04C45.1641 20.5593 45.5402 20.8985 46.0886 20.8985C46.6728 20.8985 47.0258 20.5488 47.0258 19.9416V17.8038H46.5551V19.9395C46.5551 20.2766 46.3849 20.4567 46.0844 20.4567C45.8155 20.4567 45.6327 20.2892 45.6264 20.04H45.1641ZM47.6414 20.0128C47.675 20.553 48.1268 20.8985 48.7992 20.8985C49.5178 20.8985 49.9674 20.5363 49.9674 19.9584C49.9674 19.504 49.7111 19.2527 49.0891 19.1083L48.7551 19.0266C48.36 18.9345 48.2003 18.8109 48.2003 18.5953C48.2003 18.3231 48.4483 18.1451 48.8202 18.1451C49.1732 18.1451 49.4169 18.3189 49.4611 18.5974H49.9191C49.8918 18.0886 49.4421 17.7305 48.8265 17.7305C48.1646 17.7305 47.7234 18.0886 47.7234 18.6267C47.7234 19.0706 47.9734 19.3344 48.5218 19.4621L48.9126 19.5563C49.314 19.6506 49.4905 19.7888 49.4905 20.0191C49.4905 20.2871 49.2131 20.4818 48.8349 20.4818C48.4294 20.4818 48.1478 20.2997 48.1079 20.0128H47.6414Z" fill="black"/>
</svg>
