<svg width="27" height="30" viewBox="0 0 27 30" fill="none" xmlns="http://www.w3.org/2000/svg">
<path d="M13.293 30C12.8941 30 12.4893 29.8928 12.1381 29.6904L8.46513 27.5176C7.91745 27.2081 8.18534 27.1009 8.36392 27.0414C9.09614 26.7854 9.24497 26.7318 10.0248 26.2853C10.1081 26.2377 10.2153 26.2556 10.2986 26.3092L13.1203 27.9819C13.2216 28.0415 13.3644 28.0415 13.4597 27.9819L24.4548 21.6361C24.556 21.5765 24.6215 21.4575 24.6215 21.3384V8.64669C24.6215 8.52168 24.556 8.40857 24.4489 8.34309L13.4597 2.00317C13.3585 1.94365 13.2216 1.94365 13.1203 2.00317L2.13712 8.34904C2.02996 8.40857 1.96448 8.52763 1.96448 8.65264V21.3384C1.96448 21.4575 2.02996 21.5765 2.13712 21.6301L5.14932 23.3684C6.78639 24.1839 7.78649 23.2255 7.78649 22.2552V9.73013C7.78649 9.55154 7.92936 9.41462 8.10795 9.41462H9.50094C9.67358 9.41462 9.8224 9.55154 9.8224 9.73013V22.2611C9.8224 24.4399 8.63181 25.69 6.56613 25.69C5.92916 25.69 5.42911 25.69 4.03611 24.9995L1.15488 23.3386C0.44052 22.9279 0 22.1599 0 21.3325V8.64669C0 7.82518 0.44052 7.05129 1.15488 6.64054L12.1381 0.294672C12.8346 -0.098224 13.7573 -0.098224 14.4479 0.294672L25.443 6.64649C26.1574 7.05725 26.5979 7.82518 26.5979 8.65264V21.3384C26.5979 22.1599 26.1574 22.9279 25.443 23.3446L14.4479 29.6904C14.0966 29.8928 13.6978 30 13.293 30ZM22.1689 17.4928C22.1689 15.1176 20.5616 14.4866 17.1862 14.0401C13.7692 13.5877 13.424 13.3555 13.424 12.5578C13.424 11.897 13.7156 11.016 16.2457 11.016C18.5018 11.016 19.3352 11.5041 19.6805 13.0281C19.7103 13.1709 19.8413 13.2781 19.9901 13.2781H21.4188C21.5081 13.2781 21.5914 13.2424 21.651 13.1769C21.7105 13.1114 21.7403 13.0221 21.7343 12.9328C21.514 10.3076 19.7698 9.08721 16.2457 9.08721C13.1084 9.08721 11.2392 10.4088 11.2392 12.6292C11.2392 15.0342 13.1025 15.701 16.1087 15.9986C19.7103 16.3498 19.9901 16.8797 19.9901 17.5881C19.9901 18.8144 19.0019 19.3382 16.6862 19.3382C13.7752 19.3382 13.1382 18.606 12.9239 17.1594C12.9001 17.0047 12.7691 16.8916 12.6084 16.8916H11.1856C11.007 16.8916 10.8701 17.0344 10.8701 17.2071C10.8701 19.0584 11.8762 21.267 16.6921 21.267C20.1687 21.261 22.1689 19.8859 22.1689 17.4928V17.4928Z" fill="#101D2C"/>
</svg>
