<svg width="30" height="27" viewBox="0 0 30 27" fill="none" xmlns="http://www.w3.org/2000/svg">
<path d="M24.5039 8.50708C24.1875 8.40161 23.8711 8.302 23.5547 8.20825C23.6074 7.99146 23.6543 7.77466 23.7012 7.55786C24.4219 4.06567 23.9473 1.25903 22.3477 0.333252C20.8066 -0.551514 18.293 0.368408 15.75 2.58325C15.498 2.80005 15.252 3.02856 15.0176 3.25708C14.8594 3.10474 14.6953 2.95239 14.5312 2.80591C11.8652 0.43872 9.19336 -0.557373 7.59375 0.374267C6.05859 1.26489 5.60156 3.90747 6.24609 7.21216C6.31055 7.54028 6.38086 7.86255 6.46289 8.19067C6.08789 8.29614 5.71875 8.41333 5.37305 8.53638C2.24414 9.62036 0 11.3313 0 13.1008C0 14.929 2.39063 16.7629 5.64258 17.8762C5.90625 17.9641 6.16992 18.052 6.43945 18.1282C6.35156 18.4797 6.27539 18.8254 6.20508 19.1829C5.58984 22.4348 6.07031 25.0129 7.60547 25.8977C9.1875 26.8118 11.8477 25.8743 14.4375 23.6067C14.6426 23.425 14.8477 23.2376 15.0527 23.0383C15.3105 23.2903 15.5801 23.5305 15.8496 23.7649C18.3574 25.9211 20.8359 26.7942 22.3652 25.9094C23.9473 24.9954 24.4629 22.2239 23.7949 18.8489C23.7422 18.5911 23.6836 18.3274 23.6191 18.0579C23.8066 18.0051 23.9883 17.9465 24.1699 17.8879C27.5508 16.7688 30 14.9583 30 13.1008C30 11.3254 27.6914 9.60278 24.5039 8.50708V8.50708ZM16.5762 3.53247C18.7559 1.63403 20.7891 0.889892 21.7148 1.4231C22.7051 1.99145 23.0859 4.28833 22.4648 7.30591C22.4238 7.50513 22.3828 7.69849 22.3301 7.89185C21.0293 7.59888 19.7109 7.38794 18.3867 7.27075C17.625 6.18091 16.793 5.13794 15.8906 4.15942C16.1191 3.94263 16.3418 3.73755 16.5762 3.53247V3.53247ZM9.79688 16.1418C10.0957 16.6516 10.4004 17.1614 10.7227 17.6594C9.80859 17.5598 8.90039 17.4133 8.00391 17.22C8.26172 16.3762 8.58398 15.5032 8.95898 14.6125C9.22852 15.1282 9.50391 15.6379 9.79688 16.1418V16.1418ZM8.02148 9.09302C8.86523 8.90552 9.76172 8.75317 10.6934 8.63599C10.3828 9.12231 10.0781 9.62036 9.79102 10.1243C9.50391 10.6223 9.22266 11.1321 8.95898 11.6477C8.58984 10.7747 8.2793 9.91919 8.02148 9.09302ZM9.62695 13.1301C10.0137 12.3215 10.4355 11.5305 10.8809 10.7512C11.3262 9.97192 11.8066 9.21606 12.3105 8.47192C13.1895 8.40747 14.0859 8.37231 15 8.37231C15.9141 8.37231 16.8164 8.40747 17.6895 8.47192C18.1875 9.2102 18.6621 9.96606 19.1133 10.7395C19.5645 11.5129 19.9863 12.304 20.3848 13.1067C19.9922 13.9153 19.5703 14.7122 19.1191 15.4973C18.6738 16.2766 18.1992 17.0325 17.7012 17.7825C16.8281 17.8469 15.9199 17.8762 15 17.8762C14.0801 17.8762 13.1895 17.8469 12.3281 17.7942C11.8184 17.0501 11.3379 16.2883 10.8867 15.509C10.4355 14.7297 10.0195 13.9387 9.62695 13.1301ZM20.209 16.1301C20.5078 15.6145 20.7891 15.093 21.0645 14.5657C21.4395 15.4153 21.7676 16.2766 22.0547 17.1614C21.1465 17.3665 20.2266 17.5247 19.3008 17.6301C19.6172 17.1379 19.916 16.634 20.209 16.1301ZM21.0527 11.6477C20.7773 11.1321 20.4961 10.6165 20.2031 10.1125C19.916 9.6145 19.6172 9.12231 19.3066 8.63599C20.25 8.75317 21.1523 8.91138 21.9961 9.10474C21.7266 9.97192 21.4102 10.8157 21.0527 11.6477V11.6477ZM15.0117 5.05591C15.627 5.72388 16.207 6.427 16.7461 7.15356C15.5859 7.10083 14.4199 7.10083 13.2598 7.15356C13.834 6.39771 14.4258 5.69458 15.0117 5.05591ZM8.21484 1.46411C9.19922 0.889892 11.3848 1.7102 13.6875 3.74927C13.834 3.87817 13.9805 4.0188 14.1328 4.15942C13.2246 5.13794 12.3867 6.18091 11.6191 7.27075C10.2949 7.38794 8.98242 7.59302 7.68164 7.88013C7.60547 7.5813 7.54102 7.27661 7.47656 6.97192C6.92578 4.13599 7.28906 1.99731 8.21484 1.46411V1.46411ZM6.7793 16.9094C6.5332 16.8391 6.29297 16.7629 6.05273 16.6809C4.80469 16.2883 3.38672 15.6672 2.36133 14.8528C1.76953 14.4426 1.37109 13.8098 1.25977 13.1008C1.25977 12.0286 3.11133 10.6575 5.7832 9.72583C6.11719 9.60864 6.45703 9.50317 6.79688 9.40356C7.19531 10.675 7.67578 11.9231 8.23242 13.1301C7.66992 14.3547 7.18359 15.6204 6.7793 16.9094V16.9094ZM13.6113 22.6516C12.6445 23.5364 11.5254 24.2395 10.3066 24.72C9.65625 25.0305 8.90625 25.0598 8.23828 24.7961C7.30664 24.2571 6.91992 22.1887 7.44727 19.4055C7.51172 19.0774 7.58203 18.7493 7.66406 18.427C8.97656 18.7083 10.3008 18.9016 11.6426 19.0012C12.416 20.0969 13.2656 21.1458 14.1738 22.1301C13.9863 22.3118 13.7988 22.4875 13.6113 22.6516ZM15.0469 21.2278C14.4492 20.5833 13.8516 19.8684 13.2715 19.1008C13.834 19.1243 14.4141 19.136 15 19.136C15.6035 19.136 16.1953 19.1243 16.7812 19.095C16.2422 19.8391 15.6621 20.5481 15.0469 21.2278V21.2278ZM22.7051 22.9856C22.6523 23.7004 22.3008 24.3684 21.7383 24.8196C20.8066 25.3586 18.8203 24.6555 16.6758 22.8157C16.4297 22.6047 16.1836 22.3762 15.9316 22.1418C16.8281 21.1516 17.6543 20.1028 18.4043 19.0012C19.7461 18.8899 21.082 18.6848 22.4004 18.386C22.459 18.6262 22.5117 18.8665 22.5586 19.1008C22.8457 20.3665 22.8926 21.6848 22.7051 22.9856V22.9856ZM23.7715 16.6868C23.6074 16.7395 23.4434 16.7922 23.2734 16.8391C22.8633 15.5618 22.3594 14.3137 21.7793 13.1008C22.3418 11.9055 22.8164 10.675 23.2148 9.41528C23.5195 9.50317 23.8125 9.59692 24.0938 9.69067C26.8242 10.6282 28.7402 12.0227 28.7402 13.0891C28.7402 14.2375 26.6953 15.72 23.7715 16.6868ZM15 15.8079C16.4824 15.8079 17.6836 14.6067 17.6836 13.1243C17.6836 11.6418 16.4824 10.4407 15 10.4407C13.5176 10.4407 12.3164 11.6418 12.3164 13.1243C12.3164 14.6067 13.5176 15.8079 15 15.8079Z" fill="#101D2C"/>
</svg>
