<svg width="25" height="31" viewBox="0 0 25 31" fill="none" xmlns="http://www.w3.org/2000/svg">
<path d="M17.9277 0.303337L17.7777 3.69084C17.7759 3.73369 17.7863 3.77616 17.8078 3.81326C17.8294 3.85036 17.861 3.88054 17.8991 3.90025C17.9372 3.91995 17.9801 3.92835 18.0229 3.92447C18.0656 3.92059 18.1063 3.90458 18.1402 3.87834L19.4652 2.87834L20.5902 3.75334C20.6232 3.77549 20.6615 3.78849 20.7012 3.79101C20.7409 3.79354 20.7806 3.7855 20.8161 3.76771C20.8517 3.74993 20.8819 3.72303 20.9037 3.68976C20.9255 3.6565 20.9381 3.61805 20.9402 3.57834L20.8152 0.128337L22.4777 0.00333741C22.6829 -0.0103756 22.8888 0.0182667 23.0825 0.0874843C23.2762 0.156702 23.4536 0.265016 23.6036 0.405694C23.7537 0.546373 23.8732 0.71641 23.9547 0.905238C24.0363 1.09407 24.0782 1.29765 24.0777 1.50334V28.5033C24.078 28.7068 24.0368 28.9082 23.9568 29.0952C23.8768 29.2823 23.7595 29.4511 23.6122 29.5914C23.4648 29.7317 23.2905 29.8406 23.0998 29.9114C22.909 29.9822 22.7059 30.0135 22.5027 30.0033L2.3777 29.1033C1.9993 29.0878 1.6408 28.9296 1.37416 28.6607C1.10753 28.3917 0.9525 28.0319 0.940196 27.6533L0.00269647 2.90334C-0.00913499 2.70628 0.0180477 2.50883 0.0826862 2.3223C0.147325 2.13576 0.248147 1.96383 0.379373 1.81635C0.510599 1.66886 0.669646 1.54873 0.847396 1.46284C1.02514 1.37696 1.2181 1.327 1.4152 1.31584L17.9152 0.278337L17.9277 0.303337V0.303337ZM14.0902 11.6283C14.0902 12.2158 18.0402 11.9283 18.5777 11.5283C18.5777 7.52834 16.4277 5.41584 12.5027 5.41584C8.5652 5.41584 6.3777 7.56584 6.3777 10.7783C6.3777 16.3408 13.8777 16.4408 13.8777 19.4783C13.8777 20.3533 13.4777 20.8533 12.5652 20.8533C11.3652 20.8533 10.8777 20.2408 10.9402 18.1533C10.9402 17.7033 6.3777 17.5533 6.2277 18.1533C5.8902 23.1908 9.0152 24.6533 12.6027 24.6533C16.0902 24.6533 18.8152 22.7908 18.8152 19.4283C18.8152 13.4658 11.1902 13.6283 11.1902 10.6783C11.1902 9.46584 12.0902 9.30334 12.6027 9.30334C13.1652 9.30334 14.1652 9.39084 14.0902 11.6408V11.6283Z" fill="black"/>
</svg>
