<svg width="30" height="14" viewBox="0 0 30 14" fill="none" xmlns="http://www.w3.org/2000/svg">
<path d="M20.2675 0L20.1737 0.48875C20.0287 1.415 20.0812 1.68 20.4787 2.02375L20.8625 2.34125L20.465 4.11375C20.2275 5.17125 19.9362 6.0575 19.7512 6.34875C19.5925 6.6 19.4075 6.97 19.3675 7.16875C19.3013 7.40625 19.0763 7.645 18.7325 7.85625C18.4288 8.02875 17.8325 8.49125 17.41 8.8625C17.0725 9.16625 16.84 9.3525 16.7138 9.4325L16.3013 9.75875C16.1688 9.97125 16.0938 10.1425 16.065 10.2725C16.0363 10.4062 16.0525 10.495 16.095 10.56C16.1363 10.6225 16.2075 10.6662 16.305 10.6937C16.4204 10.7208 16.5392 10.7305 16.6575 10.7225C16.9251 10.7042 17.1899 10.6573 17.4475 10.5825C17.535 10.5587 17.6037 10.5362 17.6637 10.5162C17.7562 10.4025 17.97 10.1875 18.3487 9.81375C19.3537 8.8225 19.7375 8.28 19.3412 8.42625C19.195 8.47875 19.2612 8.34625 19.5125 8.08125C20.0425 7.565 20.3462 6.785 20.9812 4.33875C21.4837 2.4075 21.4837 2.38 21.8537 2.38C22.0275 2.38 22.5187 2.41 22.5187 2.41V0H21.3913H20.2675ZM25.0662 3.95625C24.9862 3.95625 24.8537 4.07625 24.775 4.20875C24.63 4.44625 24.8012 4.59125 26.9837 5.95375C28.28 6.775 29.325 7.475 29.2987 7.52875C29.2725 7.5675 28.2137 8.25625 26.945 9.05C24.6425 10.4775 24.63 10.4912 24.8412 10.7825C25.1062 11.1262 24.8412 11.245 27.83 9.38L30 7.99125V6.94625L27.5787 5.45125C26.27 4.63125 25.1325 3.97 25.0662 3.95625ZM4.96 4.1025C4.89375 4.1025 3.75625 4.7775 2.4475 5.58375L0 7.07875V8.12375L2.43375 9.645C3.78375 10.4775 4.92125 11.1662 4.97375 11.1662C5.02625 11.1662 5.1325 11.0462 5.23875 10.9012C5.3975 10.65 5.26375 10.5437 3.02875 9.12875C0.9 7.7925 0.675 7.6075 0.8875 7.4625C1.02 7.37 2.025 6.7475 3.11 6.07375C5.58375 4.5525 5.45125 4.6575 5.2525 4.34C5.17375 4.20875 5.04 4.09 4.96125 4.1025H4.96ZM15.815 4.13125C15.45 4.12875 14.665 4.685 12.315 6.60375C12.2138 6.845 12.205 7.01125 12.2512 7.11875C12.2812 7.1925 12.3363 7.24375 12.4125 7.28125C12.4875 7.31875 12.585 7.34125 12.6925 7.35C12.9063 7.36875 13.1587 7.335 13.3625 7.295L13.5 7.26375C13.5471 7.20063 13.6089 7.14999 13.68 7.11625C13.825 7.03625 14.4338 6.48125 15.0425 5.88625C16.1138 4.80125 16.365 4.31125 15.9288 4.1525C15.893 4.13826 15.8548 4.13105 15.8162 4.13125H15.815ZM18.56 4.885C18.2387 4.89375 17.66 5.26625 16.6688 6.0575C16.1713 6.46125 15.8563 6.67875 15.6875 6.72375L15.0325 7.24125C14.7863 7.69125 14.75 7.97 14.815 8.12375C14.8313 8.16168 14.8549 8.196 14.8845 8.22475C14.9141 8.2535 14.9491 8.2761 14.9875 8.29125C15.083 8.32896 15.1848 8.34805 15.2875 8.3475C15.5328 8.34488 15.7767 8.30914 16.0125 8.24125C16.1354 8.20827 16.2567 8.1699 16.3762 8.12625L16.4125 8.11125L16.4787 8.07625C16.6037 7.915 16.8912 7.61125 17.2512 7.26125C18.3887 6.16375 18.97 5.38375 18.8513 5.0925C18.7975 4.95125 18.705 4.88 18.56 4.885V4.885ZM15.53 6.235C15.4375 6.245 15.23 6.405 14.8563 6.7325C14.3163 7.21 13.7275 7.485 13.5238 7.3625C13.4764 7.3732 13.4289 7.3832 13.3812 7.3925C13.1737 7.43375 12.915 7.4675 12.6838 7.44875C12.5748 7.44215 12.468 7.41545 12.3688 7.37C12.2751 7.3272 12.2004 7.25161 12.1588 7.1575C12.1125 7.045 12.1125 6.905 12.165 6.72625L11.3525 7.39375L9.51375 8.915V11.3812L15.5387 6.635C15.5376 6.58303 15.5443 6.53119 15.5587 6.48125C15.605 6.31375 15.6025 6.22875 15.53 6.23625V6.235ZM18.1225 7.03375C18.0313 7.03375 17.8787 7.1625 17.635 7.42125C17.3037 7.775 16.7825 8.1175 16.5062 8.1875L16.4637 8.21C16.4184 8.22873 16.3725 8.24623 16.3262 8.2625C16.2512 8.2875 16.1538 8.3175 16.0413 8.3475C15.8163 8.40875 15.5363 8.465 15.2863 8.45875C15.1684 8.4586 15.0517 8.43568 14.9425 8.39125C14.8396 8.34884 14.7572 8.26819 14.7125 8.16625C14.64 7.9925 14.6688 7.74875 14.8275 7.4025L9.5125 11.5887V13.095H11.8475L16.8 9.205C16.9287 9.0625 17.1225 8.8675 17.3837 8.62375C18.0837 7.975 18.2425 7.75125 18.2425 7.42C18.2425 7.1625 18.2138 7.0325 18.1225 7.0325V7.03375ZM19.3012 9.47125L18.8775 9.89375C18.64 10.1187 18.2162 10.3962 17.9262 10.515L17.8688 10.54L17.865 10.5462L17.8525 10.5587C17.8412 10.5675 17.8363 10.5687 17.8275 10.5725C17.7117 10.6163 17.5941 10.6551 17.475 10.6887C17.2101 10.7658 16.9377 10.814 16.6625 10.8325C16.5324 10.8408 16.4017 10.8295 16.275 10.7987C16.165 10.7745 16.0679 10.7104 16.0025 10.6187C15.9425 10.5262 15.925 10.4025 15.9588 10.25C15.9856 10.1414 16.0255 10.0365 16.0775 9.9375L12.0812 13.095H17.3962L18.0313 12.3675C18.9038 11.35 19.3012 10.6225 19.3012 10V9.47125Z" fill="black"/>
</svg>
