<svg width="30" height="30" viewBox="0 0 30 30" fill="none" xmlns="http://www.w3.org/2000/svg">
<path d="M0 15V30H30V0H0V15ZM24.1762 13.805C24.9387 13.995 25.5187 14.3338 26.0525 14.8863C26.3287 15.1813 26.7387 15.7187 26.7712 15.8487C26.7812 15.8862 25.4763 16.7613 24.6863 17.2525C24.6575 17.2713 24.5425 17.1475 24.415 16.9575C24.0275 16.395 23.6237 16.1525 23.005 16.11C22.095 16.0475 21.51 16.5237 21.515 17.3187C21.5067 17.5143 21.5507 17.7084 21.6425 17.8813C21.8425 18.295 22.215 18.5437 23.38 19.0475C25.5288 19.9725 26.4475 20.5813 27.0187 21.4475C27.6562 22.4138 27.8 23.9575 27.3662 25.105C26.8912 26.3525 25.71 27.2 24.0475 27.48C23.5338 27.5712 22.315 27.5575 21.7625 27.4575C20.5575 27.2425 19.415 26.6475 18.71 25.8663C18.4338 25.5625 17.895 24.7662 17.9288 24.71C17.9425 24.69 18.0662 24.6138 18.2037 24.5338C18.3387 24.4575 18.8425 24.1662 19.3187 23.89L20.1813 23.39L20.3625 23.6575C20.615 24.0425 21.1663 24.5713 21.5 24.7475C22.4575 25.2525 23.7712 25.1813 24.4187 24.6C24.549 24.4903 24.652 24.352 24.7199 24.1959C24.7878 24.0397 24.8186 23.87 24.81 23.7C24.81 23.3525 24.7662 23.2 24.585 22.9375C24.3525 22.605 23.8762 22.325 22.5237 21.7375C20.9762 21.0712 20.31 20.6575 19.7 20C19.3193 19.5661 19.0381 19.0541 18.8762 18.5C18.7625 18.0763 18.7338 17.0138 18.8238 16.5863C19.1425 15.09 20.2713 14.0488 21.9 13.7388C22.4288 13.6388 23.6575 13.6762 24.1762 13.805V13.805ZM17.1337 15.0575L17.1438 16.2863H13.2375V27.3813H10.475V16.2863H6.5725V15.0812C6.5725 14.4137 6.58625 13.8562 6.605 13.8437C6.62 13.8237 8.99625 13.8138 11.8763 13.8188L17.12 13.8338L17.1337 15.0575Z" fill="black"/>
</svg>
